# xmcd
#
# Track frame offsets: 
#        150
#        16278
#        34625
#        50894
#        72997
#        89239
#        107145
#        120851
#        140265
#        159847
#        177439
#        190563
#        203168
#
# Disc length: 2962 seconds
#
# Revision: 1
# Processed by: cddbd v1.4PL0 Copyright (c) Steve Scherf et al.
# Submitted via: ExactAudioCopy v0.90b4
#
DISCID=ad0b900d
DTITLE=Andy Cowan - 10-30 Thursday
DYEAR=2001
DGENRE=R&B
TTITLE0=Higher Love
TTITLE1=Well well well
TTITLE2=Trouble
TTITLE3=Jersey Girl
TTITLE4=Move a little closer
TTITLE5=Just can't hold on
TTITLE6=Never look back
TTITLE7=Mama
TTITLE8=Chelsea Morning
TTITLE9=Born from a star
TTITLE10=The moon's a harsh mistress
TTITLE11=Cuttin' Out
TTITLE12=Little Wing
EXTD=
EXTT0=
EXTT1=
EXTT2=
EXTT3=
EXTT4=
EXTT5=
EXTT6=
EXTT7=
EXTT8=
EXTT9=
EXTT10=
EXTT11=
EXTT12=
PLAYORDER=
